<?xml version="1.0" standalone="no"?><!DOCTYPE svg PUBLIC "-//W3C//DTD SVG 1.1//EN" "http://www.w3.org/Graphics/SVG/1.1/DTD/svg11.dtd"><svg t="1675738371811" class="icon" viewBox="0 0 1024 1024" version="1.1" xmlns="http://www.w3.org/2000/svg" p-id="2665" xmlns:xlink="http://www.w3.org/1999/xlink" width="200" height="200"><path d="M868.1984 473.3952l-282.7264-217.8048c-41.1136-31.6928-98.56-31.3344-139.264 0.8704L171.52 473.3952a113.21344 113.21344 0 0 0-43.0592 88.832v232.3968c0 62.5152 50.688 113.2032 113.2032 113.2032h557.3632c62.5152 0 113.2032-50.688 113.2032-113.2032v-231.5264c0.0512-35.1232-16.2304-68.3008-44.032-89.7024z" fill="#FF5F5F" p-id="2666"></path><path d="M607.0272 922.5216c-8.4992 0-15.36-6.8608-15.36-15.36v-195.7376c0-17.1008-13.9264-30.976-31.0272-30.976H453.2224c-17.1008 0-31.0272 13.9264-31.0272 30.976v190.1056c0 8.4992-6.8608 15.36-15.36 15.36s-15.36-6.8608-15.36-15.36v-190.1056c0-34.048 27.6992-61.696 61.7472-61.696h107.4176c34.048 0 61.7472 27.6992 61.7472 61.696v195.7376c0 8.448-6.8608 15.36-15.36 15.36z" fill="#FFFFFF" p-id="2667"></path><path d="M799.0784 923.1872H241.7152c-70.912 0-128.6144-57.7024-128.6144-128.5632v-232.3968c0-39.5776 17.8176-76.3904 48.896-100.9152l274.6368-216.9344a128.38912 128.38912 0 0 1 158.1568-0.9728l282.7264 217.8048c31.3856 24.1664 50.1248 62.2592 50.1248 101.888v231.5264c0 70.912-57.6512 128.5632-128.5632 128.5632zM516.352 247.3984c-21.4528 0-42.8544 7.0144-60.672 21.0944L181.0432 485.4272a97.36192 97.36192 0 0 0-37.2224 76.8v232.3968c0 53.9648 43.9296 97.8432 97.8944 97.8432h557.3632c53.9648 0 97.8432-43.8784 97.8432-97.8432v-231.5264c0-30.1568-14.2848-59.136-38.144-77.5168L576.1024 267.776a97.62304 97.62304 0 0 0-59.7504-20.3776z" fill="#424242" p-id="2668"></path><path d="M100.1472 419.2256c-4.608 0-9.216-2.0992-12.2368-6.0416-5.12-6.7584-3.84-16.384 2.9184-21.504L437.248 127.8464c43.0592-33.3312 120.9344-24.7296 159.4368 4.9152L934.2464 373.76a15.34464 15.34464 0 1 1-17.8176 24.9856L578.56 157.6448l-0.512-0.3584c-31.7952-24.7296-93.44-27.2384-122.112-5.0176L109.4144 416.1024c-2.7648 2.0992-6.0416 3.1232-9.2672 3.1232z" fill="#424242" p-id="2669"></path></svg>